<?xml version="1.0" standalone="no"?>
<!DOCTYPE svg PUBLIC "-//W3C//DTD SVG 20010904//EN"
 "http://www.w3.org/TR/2001/REC-SVG-20010904/DTD/svg10.dtd">
<svg version="1.0" xmlns="http://www.w3.org/2000/svg"
 width="662.000000pt" height="408.000000pt" viewBox="0 0 662.000000 408.000000"
 preserveAspectRatio="xMidYMid meet">
<style>
     .shop {
           fill: rgba(204,14,14,0.79)
     }
</style>
<g transform="translate(0.000000,408.000000) scale(0.100000,-0.100000)"
fill="#000000" stroke="none">
<path class="shop" d="M1000 2260 l0 -640 2310 0 2310 0 0 640 0 640 -2310 0 -2310 0 0
-640z m4600 0 l0 -620 -2290 0 -2290 0 0 620 0 620 2290 0 2290 0 0 -620z"/>
<path d="M2990 2667 c-186 -44 -279 -182 -280 -412 0 -196 84 -338 231 -390
144 -52 344 -12 405 80 27 41 29 104 4 144 l-21 34 -31 -37 c-16 -20 -43 -43
-58 -51 -37 -19 -123 -19 -160 0 -69 36 -107 168 -95 330 13 171 37 225 100
225 52 0 69 -29 74 -121 3 -74 5 -80 27 -85 94 -24 196 64 179 155 -10 55 -32
81 -91 108 -66 30 -200 39 -284 20z"/>
<path d="M1288 2653 l-68 -4 0 -389 0 -390 125 0 125 0 0 350 0 350 44 0 c60
0 84 -22 96 -89 21 -111 -18 -211 -80 -211 -28 0 -29 3 57 -222 l68 -178 132
0 132 0 -76 133 c-41 72 -84 146 -94 163 l-19 31 39 26 c22 15 53 48 68 74 24
41 28 59 28 123 -1 126 -53 192 -180 225 -57 14 -208 17 -397 8z"/>
<path d="M4128 2653 l-68 -4 0 -389 0 -390 125 0 125 0 0 350 0 350 45 0 c61
0 90 -21 105 -76 16 -57 7 -150 -18 -183 -10 -14 -35 -30 -55 -35 -43 -11 -46
-27 -13 -61 69 -68 237 -31 303 68 75 112 48 267 -56 325 -86 49 -206 59 -493
45z"/>
<path d="M2080 2260 l0 -390 240 0 240 0 0 50 0 50 -110 0 -110 0 0 125 0 125
85 0 85 0 0 50 0 50 -85 0 -85 0 0 120 0 120 105 0 105 0 0 45 0 45 -235 0
-235 0 0 -390z"/>
<path d="M3570 2260 l0 -390 125 0 125 0 0 390 0 390 -125 0 -125 0 0 -390z"/>
<path d="M4920 2260 l0 -390 240 0 240 0 0 50 0 50 -110 0 -110 0 0 125 0 125
85 0 85 0 0 50 0 50 -85 0 -85 0 0 120 0 120 105 0 105 0 0 45 0 45 -235 0
-235 0 0 -390z"/>
<path class="shop" d="M1220 1310 l 0 -130 l 19 0 l 21 0 l 0 103 l 1 102 l 35 -102 l 38 -103 l 19 0 l 19 0 l 34 98 l 31 97 l 1 -97 l 1 -98 l 40 0 l 40 0 l 0 130 l 0 130 l -53 0 l -54 0 l -20 -72 l -20 -73 l -22 73 l -22 72 l -54 0 l -54 0 l 0 -130z"/>
<path class="shop" d="M 2686 1327 c -18 -63 -35 -122 -38 -131 l -3 -11 l 26 0 l 24 0 l 10 28 l 8 20 l 34 0 l 37 0 l 6 -17 l 10 -31 l 40 0 l 45 0 l -25 93 l -35 130 l -7 27 l -53 0 l -49 0 l -30 -108 z m 73 10 l 12 -53 l 2 -11 l -25 0 l -30 0 l 11 50 l 13 51 l 10 0 L 2759 1337z"/>
<path class="shop" d="M3980 1310 l0 -130 80 0 64 0 l 15 0 l 0 15 l 0 15 l -35 0 l 0 0 l -35 0 l 0 115 l 0 115 l -45 0 l -45 0 l 1 -130z"/>
<path class="shop" d="M5240 1310 l 0 -130 l 80 0 l 64 0 l 15 0 l 0 15 l 0 15 l -35 0 l 0 0 l -35 0 l 0 115 l 0 115 l -45 0 l -45 0 l 1 -130z"/>
</g>
</svg>
